<svg width="19" height="19" fill="none" xmlns="http://www.w3.org/2000/svg"><path d="M9.508.225c5 0 9.05 4.025 9.05 9.025s-4.05 9.025-9.05 9.025c-5 0-9.05-4.025-9.05-9.025S4.508.225 9.508.225Zm0 17.45c4.625 0 8.375-3.75 8.375-8.425 0-4.675-3.75-8.425-8.375-8.425s-8.4 3.75-8.4 8.425c0 4.675 3.775 8.425 8.4 8.425Zm3.5-10.15c0 1.275-.6 2.25-1.875 2.65l2.1 3.7h-1.325L9.958 10.4H8.033v3.475h-1.2v-9.25h2.775c2.325 0 3.4 1.425 3.4 2.9ZM8.033 9.25h1.625c1.475 0 2.15-.675 2.15-1.725 0-1.025-.725-1.75-2.15-1.75H8.033V9.25Z" fill="#000"/></svg>